<?xml version="1.0" standalone="no"?>
<!DOCTYPE svg PUBLIC "-//W3C//DTD SVG 20010904//EN"
 "http://www.w3.org/TR/2001/REC-SVG-20010904/DTD/svg10.dtd">
<svg version="1.0" xmlns="http://www.w3.org/2000/svg"
 width="480.000000pt" height="480.000000pt" viewBox="0 0 480.000000 480.000000"
 preserveAspectRatio="xMidYMid meet">
<metadata>
Created by potrace 1.11, written by Peter Selinger 2001-2013
</metadata>
<g transform="translate(0.000000,480.000000) scale(0.100000,-0.100000)"
fill="#000000" stroke="none">
<path d="M2240 4369 c-546 -52 -1068 -370 -1382 -839 -428 -641 -420 -1469 20
-2126 338 -503 852 -805 1456 -856 108 -9 171 -9 280 0 156 14 308 41 313 57
2 6 -34 74 -79 150 -45 77 -107 184 -139 238 l-56 99 -159 -1 c-105 -1 -189 4
-249 14 -594 104 -1065 602 -1146 1212 -14 108 -7 331 14 428 70 321 232 587
476 783 252 203 527 302 839 302 201 0 337 -26 526 -100 374 -146 693 -481
824 -865 57 -166 75 -281 69 -445 -6 -167 -19 -229 -78 -348 -47 -97 -138
-200 -221 -249 -148 -89 -364 -80 -536 24 -68 42 -181 148 -247 233 -57 74
-145 210 -145 224 0 10 61 48 330 204 52 30 96 56 98 57 2 2 -190 336 -254
441 l-19 32 -185 -110 c-229 -135 -248 -144 -259 -132 -5 5 -91 148 -191 319
-100 170 -183 311 -185 314 -3 2 -42 -20 -87 -50 -94 -61 -224 -187 -281 -271
-35 -50 -38 -58 -26 -79 25 -48 599 -1030 648 -1108 293 -473 769 -749 1207
-700 429 47 774 346 918 794 160 499 14 1143 -364 1614 -91 113 -255 273 -361
353 -393 295 -884 434 -1369 387z"/>
</g>
</svg>
